<svg viewBox="0 0 24 24" fill="none" xmlns="http://www.w3.org/2000/svg">
  <!-- Parasailing kite (parachute shape) -->
  <path d="M12 4C8 4 4 6 4 10C4 14 8 16 12 16C16 16 20 14 20 10C20 6 16 4 12 4Z" stroke="#DB2777" stroke-width="2.5" stroke-linecap="round" stroke-linejoin="round" fill="none"/>
  
  <!-- Kite lines/strings -->
  <path d="M8 10L12 20" stroke="#DB2777" stroke-width="2" stroke-linecap="round" stroke-linejoin="round" fill="none"/>
  <path d="M12 10L12 20" stroke="#DB2777" stroke-width="2" stroke-linecap="round" stroke-linejoin="round" fill="none"/>
  <path d="M16 10L12 20" stroke="#DB2777" stroke-width="2" stroke-linecap="round" stroke-linejoin="round" fill="none"/>
  
  <!-- Kite detail lines -->
  <path d="M6 8C6 8 8 7 10 7C12 7 14 7 16 7" stroke="#DB2777" stroke-width="1.5" stroke-linecap="round" stroke-linejoin="round" fill="none"/>
  <path d="M7 6C7 6 9 5.5 11 5.5C13 5.5 15 5.5 17 6" stroke="#DB2777" stroke-width="1.5" stroke-linecap="round" stroke-linejoin="round" fill="none"/>
</svg>
